<svg id="visual" viewBox="0 0 900 600" width="900" height="600" xmlns="http://www.w3.org/2000/svg" xmlns:xlink="http://www.w3.org/1999/xlink" version="1.1"><g stroke-width="1" stroke-linejoin="bevel"><path d="M478 293L381 227L425 329Z" fill="#4b4815" stroke="#4b4815"></path><path d="M478 293L519 207L381 227Z" fill="#1c1a00" stroke="#1c1a00"></path><path d="M381 227L316 317L425 329Z" fill="#67611b" stroke="#67611b"></path><path d="M316 317L381 412L425 329Z" fill="#867a22" stroke="#867a22"></path><path d="M425 329L526 395L478 293Z" fill="#968826" stroke="#968826"></path><path d="M381 412L526 395L425 329Z" fill="#867a22" stroke="#867a22"></path><path d="M478 293L611 314L519 207Z" fill="#4b4815" stroke="#4b4815"></path><path d="M519 207L369 109L381 227Z" fill="#968826" stroke="#968826"></path><path d="M381 227L262 203L316 317Z" fill="#766d1f" stroke="#766d1f"></path><path d="M369 109L262 203L381 227Z" fill="#32300e" stroke="#32300e"></path><path d="M526 395L611 314L478 293Z" fill="#32300e" stroke="#32300e"></path><path d="M316 317L310 428L381 412Z" fill="#67611b" stroke="#67611b"></path><path d="M381 412L412 470L526 395Z" fill="#595418" stroke="#595418"></path><path d="M239 403L310 428L316 317Z" fill="#3e3c11" stroke="#3e3c11"></path><path d="M310 428L412 470L381 412Z" fill="#1c1a00" stroke="#1c1a00"></path><path d="M611 314L631 237L519 207Z" fill="#32300e" stroke="#32300e"></path><path d="M519 207L506 62L369 109Z" fill="#968826" stroke="#968826"></path><path d="M637 78L506 62L519 207Z" fill="#1c1a00" stroke="#1c1a00"></path><path d="M170 330L239 403L316 317Z" fill="#3e3c11" stroke="#3e3c11"></path><path d="M310 428L289 470L412 470Z" fill="#67611b" stroke="#67611b"></path><path d="M412 470L513 481L526 395Z" fill="#3e3c11" stroke="#3e3c11"></path><path d="M526 395L607 415L611 314Z" fill="#867a22" stroke="#867a22"></path><path d="M513 481L607 415L526 395Z" fill="#4b4815" stroke="#4b4815"></path><path d="M722 281L704 235L631 237Z" fill="#a69529" stroke="#a69529"></path><path d="M239 403L289 470L310 428Z" fill="#a69529" stroke="#a69529"></path><path d="M538 600L588 500L513 481Z" fill="#968826" stroke="#968826"></path><path d="M207 62L188 196L262 203Z" fill="#262508" stroke="#262508"></path><path d="M262 203L170 330L316 317Z" fill="#1c1a00" stroke="#1c1a00"></path><path d="M402 0L284 65L369 109Z" fill="#32300e" stroke="#32300e"></path><path d="M369 109L284 65L262 203Z" fill="#1c1a00" stroke="#1c1a00"></path><path d="M188 196L170 330L262 203Z" fill="#968826" stroke="#968826"></path><path d="M239 403L202 506L289 470Z" fill="#a69529" stroke="#a69529"></path><path d="M506 62L402 0L369 109Z" fill="#32300e" stroke="#32300e"></path><path d="M637 0L472 0L506 62Z" fill="#3e3c11" stroke="#3e3c11"></path><path d="M506 62L472 0L402 0Z" fill="#867a22" stroke="#867a22"></path><path d="M722 281L631 237L611 314Z" fill="#766d1f" stroke="#766d1f"></path><path d="M631 237L637 78L519 207Z" fill="#67611b" stroke="#67611b"></path><path d="M513 481L588 500L607 415Z" fill="#67611b" stroke="#67611b"></path><path d="M732 384L722 281L611 314Z" fill="#1c1a00" stroke="#1c1a00"></path><path d="M404 600L513 481L412 470Z" fill="#3e3c11" stroke="#3e3c11"></path><path d="M725 115L637 78L631 237Z" fill="#a69529" stroke="#a69529"></path><path d="M96 106L129 230L188 196Z" fill="#867a22" stroke="#867a22"></path><path d="M188 196L129 230L170 330Z" fill="#4b4815" stroke="#4b4815"></path><path d="M732 384L611 314L607 415Z" fill="#32300e" stroke="#32300e"></path><path d="M211 0L207 62L284 65Z" fill="#1c1a00" stroke="#1c1a00"></path><path d="M284 65L207 62L262 203Z" fill="#766d1f" stroke="#766d1f"></path><path d="M402 0L287 0L284 65Z" fill="#262508" stroke="#262508"></path><path d="M120 432L202 506L239 403Z" fill="#262508" stroke="#262508"></path><path d="M289 470L404 600L412 470Z" fill="#4b4815" stroke="#4b4815"></path><path d="M120 432L239 403L170 330Z" fill="#3e3c11" stroke="#3e3c11"></path><path d="M686 489L732 384L607 415Z" fill="#595418" stroke="#595418"></path><path d="M261 600L404 600L289 470Z" fill="#a69529" stroke="#a69529"></path><path d="M704 235L725 115L631 237Z" fill="#a69529" stroke="#a69529"></path><path d="M637 78L637 0L506 62Z" fill="#3e3c11" stroke="#3e3c11"></path><path d="M760 138L725 115L704 235Z" fill="#968826" stroke="#968826"></path><path d="M760 138L704 235L816 215Z" fill="#3e3c11" stroke="#3e3c11"></path><path d="M588 500L686 489L607 415Z" fill="#32300e" stroke="#32300e"></path><path d="M600 600L686 489L588 500Z" fill="#766d1f" stroke="#766d1f"></path><path d="M287 0L211 0L284 65Z" fill="#32300e" stroke="#32300e"></path><path d="M207 62L96 106L188 196Z" fill="#867a22" stroke="#867a22"></path><path d="M683 0L637 0L637 78Z" fill="#4b4815" stroke="#4b4815"></path><path d="M63 318L120 432L170 330Z" fill="#595418" stroke="#595418"></path><path d="M404 600L538 600L513 481Z" fill="#968826" stroke="#968826"></path><path d="M816 215L704 235L722 281Z" fill="#32300e" stroke="#32300e"></path><path d="M725 115L683 0L637 78Z" fill="#3e3c11" stroke="#3e3c11"></path><path d="M129 230L63 318L170 330Z" fill="#968826" stroke="#968826"></path><path d="M0 316L63 318L0 193Z" fill="#595418" stroke="#595418"></path><path d="M92 0L96 106L207 62Z" fill="#a69529" stroke="#a69529"></path><path d="M202 600L261 600L202 506Z" fill="#1c1a00" stroke="#1c1a00"></path><path d="M202 506L261 600L289 470Z" fill="#32300e" stroke="#32300e"></path><path d="M765 0L683 0L725 115Z" fill="#867a22" stroke="#867a22"></path><path d="M538 600L600 600L588 500Z" fill="#1c1a00" stroke="#1c1a00"></path><path d="M830 310L722 281L732 384Z" fill="#968826" stroke="#968826"></path><path d="M830 310L816 215L722 281Z" fill="#32300e" stroke="#32300e"></path><path d="M760 138L765 0L725 115Z" fill="#595418" stroke="#595418"></path><path d="M118 535L202 600L202 506Z" fill="#867a22" stroke="#867a22"></path><path d="M118 535L202 506L120 432Z" fill="#595418" stroke="#595418"></path><path d="M783 472L732 384L686 489Z" fill="#67611b" stroke="#67611b"></path><path d="M783 472L807 382L732 384Z" fill="#766d1f" stroke="#766d1f"></path><path d="M0 480L118 535L120 432Z" fill="#67611b" stroke="#67611b"></path><path d="M807 382L830 310L732 384Z" fill="#32300e" stroke="#32300e"></path><path d="M721 600L783 472L686 489Z" fill="#4b4815" stroke="#4b4815"></path><path d="M900 406L900 300L830 310Z" fill="#766d1f" stroke="#766d1f"></path><path d="M0 193L63 318L129 230Z" fill="#595418" stroke="#595418"></path><path d="M63 318L0 410L120 432Z" fill="#32300e" stroke="#32300e"></path><path d="M211 0L92 0L207 62Z" fill="#a69529" stroke="#a69529"></path><path d="M96 106L0 193L129 230Z" fill="#766d1f" stroke="#766d1f"></path><path d="M0 68L0 193L96 106Z" fill="#1c1a00" stroke="#1c1a00"></path><path d="M900 61L765 0L760 138Z" fill="#766d1f" stroke="#766d1f"></path><path d="M600 600L721 600L686 489Z" fill="#67611b" stroke="#67611b"></path><path d="M0 316L0 410L63 318Z" fill="#262508" stroke="#262508"></path><path d="M92 0L0 68L96 106Z" fill="#1c1a00" stroke="#1c1a00"></path><path d="M0 410L0 480L120 432Z" fill="#67611b" stroke="#67611b"></path><path d="M118 535L62 600L202 600Z" fill="#67611b" stroke="#67611b"></path><path d="M830 310L900 300L816 215Z" fill="#968826" stroke="#968826"></path><path d="M816 215L900 61L760 138Z" fill="#67611b" stroke="#67611b"></path><path d="M900 406L830 310L807 382Z" fill="#262508" stroke="#262508"></path><path d="M900 406L807 382L783 472Z" fill="#262508" stroke="#262508"></path><path d="M900 300L900 208L816 215Z" fill="#1c1a00" stroke="#1c1a00"></path><path d="M0 480L62 600L118 535Z" fill="#262508" stroke="#262508"></path><path d="M721 600L792 600L783 472Z" fill="#4b4815" stroke="#4b4815"></path><path d="M900 493L900 406L783 472Z" fill="#32300e" stroke="#32300e"></path><path d="M92 0L0 0L0 68Z" fill="#32300e" stroke="#32300e"></path><path d="M900 208L900 61L816 215Z" fill="#3e3c11" stroke="#3e3c11"></path><path d="M792 600L900 493L783 472Z" fill="#a69529" stroke="#a69529"></path><path d="M0 480L0 600L62 600Z" fill="#3e3c11" stroke="#3e3c11"></path><path d="M900 61L900 0L765 0Z" fill="#1c1a00" stroke="#1c1a00"></path><path d="M792 600L900 600L900 493Z" fill="#867a22" stroke="#867a22"></path></g></svg>