<svg id="visual" viewBox="0 0 900 600" width="900" height="600" xmlns="http://www.w3.org/2000/svg" xmlns:xlink="http://www.w3.org/1999/xlink" version="1.1"><g stroke-width="1" stroke-linejoin="bevel"><path d="M406 265L383 238L297 301Z" fill="#8a8000" stroke="#fff252"></path><path d="M383 238L322 222L297 301Z" fill="#a0930c" stroke="#fff252"></path><path d="M297 301L378 411L406 265Z" fill="#958a06" stroke="#fff252"></path><path d="M297 301L305 429L378 411Z" fill="#f2da34" stroke="#fff252"></path><path d="M322 222L212 231L297 301Z" fill="#958a06" stroke="#fff252"></path><path d="M297 301L197 385L305 429Z" fill="#ab9d13" stroke="#fff252"></path><path d="M383 238L308 138L322 222Z" fill="#cebb24" stroke="#fff252"></path><path d="M322 222L308 138L212 231Z" fill="#8a8000" stroke="#fff252"></path><path d="M407 93L308 138L383 238Z" fill="#cebb24" stroke="#fff252"></path><path d="M378 411L513 332L406 265Z" fill="#f2da34" stroke="#fff252"></path><path d="M406 265L508 224L383 238Z" fill="#958a06" stroke="#fff252"></path><path d="M513 332L508 224L406 265Z" fill="#958a06" stroke="#fff252"></path><path d="M212 231L177 306L297 301Z" fill="#dac629" stroke="#fff252"></path><path d="M378 411L516 363L513 332Z" fill="#8a8000" stroke="#fff252"></path><path d="M513 332L572 262L508 224Z" fill="#cebb24" stroke="#fff252"></path><path d="M305 429L362 470L378 411Z" fill="#c2b11e" stroke="#fff252"></path><path d="M378 411L507 499L516 363Z" fill="#958a06" stroke="#fff252"></path><path d="M177 306L197 385L297 301Z" fill="#c2b11e" stroke="#fff252"></path><path d="M305 429L285 467L362 470Z" fill="#ab9d13" stroke="#fff252"></path><path d="M197 385L285 467L305 429Z" fill="#a0930c" stroke="#fff252"></path><path d="M508 224L407 93L383 238Z" fill="#dac629" stroke="#fff252"></path><path d="M563 385L572 262L513 332Z" fill="#dac629" stroke="#fff252"></path><path d="M508 224L498 94L407 93Z" fill="#b6a719" stroke="#fff252"></path><path d="M267 0L194 120L308 138Z" fill="#e6d02e" stroke="#fff252"></path><path d="M308 138L194 120L212 231Z" fill="#f2da34" stroke="#fff252"></path><path d="M212 231L112 185L177 306Z" fill="#c2b11e" stroke="#fff252"></path><path d="M507 499L563 385L516 363Z" fill="#f2da34" stroke="#fff252"></path><path d="M516 363L563 385L513 332Z" fill="#f2da34" stroke="#fff252"></path><path d="M562 134L498 94L508 224Z" fill="#8a8000" stroke="#fff252"></path><path d="M572 262L580 187L508 224Z" fill="#ab9d13" stroke="#fff252"></path><path d="M676 203L580 187L572 262Z" fill="#e6d02e" stroke="#fff252"></path><path d="M580 187L562 134L508 224Z" fill="#a0930c" stroke="#fff252"></path><path d="M194 120L112 185L212 231Z" fill="#8a8000" stroke="#fff252"></path><path d="M177 306L90 327L197 385Z" fill="#c2b11e" stroke="#fff252"></path><path d="M362 470L507 499L378 411Z" fill="#8a8000" stroke="#fff252"></path><path d="M435 600L507 499L362 470Z" fill="#dac629" stroke="#fff252"></path><path d="M112 185L90 327L177 306Z" fill="#958a06" stroke="#fff252"></path><path d="M197 385L162 517L285 467Z" fill="#b6a719" stroke="#fff252"></path><path d="M90 327L105 433L197 385Z" fill="#ffe539" stroke="#fff252"></path><path d="M498 94L427 0L407 93Z" fill="#b6a719" stroke="#fff252"></path><path d="M407 93L267 0L308 138Z" fill="#cebb24" stroke="#fff252"></path><path d="M523 0L427 0L498 94Z" fill="#cebb24" stroke="#fff252"></path><path d="M106 460L162 517L197 385Z" fill="#dac629" stroke="#fff252"></path><path d="M270 600L435 600L362 470Z" fill="#f2da34" stroke="#fff252"></path><path d="M427 0L267 0L407 93Z" fill="#f2da34" stroke="#fff252"></path><path d="M194 120L64 100L112 185Z" fill="#8a8000" stroke="#fff252"></path><path d="M0 514L106 460L105 433Z" fill="#ab9d13" stroke="#fff252"></path><path d="M105 433L106 460L197 385Z" fill="#b6a719" stroke="#fff252"></path><path d="M267 0L220 0L194 120Z" fill="#dac629" stroke="#fff252"></path><path d="M270 600L362 470L285 467Z" fill="#ffe539" stroke="#fff252"></path><path d="M239 600L270 600L285 467Z" fill="#cebb24" stroke="#fff252"></path><path d="M67 600L239 600L162 517Z" fill="#b6a719" stroke="#fff252"></path><path d="M162 517L239 600L285 467Z" fill="#ffe539" stroke="#fff252"></path><path d="M629 526L563 385L507 499Z" fill="#b6a719" stroke="#fff252"></path><path d="M629 526L662 411L563 385Z" fill="#e6d02e" stroke="#fff252"></path><path d="M563 385L662 411L572 262Z" fill="#a0930c" stroke="#fff252"></path><path d="M617 0L523 0L562 134Z" fill="#a0930c" stroke="#fff252"></path><path d="M676 203L562 134L580 187Z" fill="#ab9d13" stroke="#fff252"></path><path d="M562 134L523 0L498 94Z" fill="#958a06" stroke="#fff252"></path><path d="M739 323L676 203L572 262Z" fill="#c2b11e" stroke="#fff252"></path><path d="M63 0L64 100L194 120Z" fill="#dac629" stroke="#fff252"></path><path d="M112 185L0 327L90 327Z" fill="#b6a719" stroke="#fff252"></path><path d="M435 600L505 600L507 499Z" fill="#e6d02e" stroke="#fff252"></path><path d="M90 327L0 378L105 433Z" fill="#c2b11e" stroke="#fff252"></path><path d="M0 167L0 327L112 185Z" fill="#8a8000" stroke="#fff252"></path><path d="M0 327L0 378L90 327Z" fill="#ab9d13" stroke="#fff252"></path><path d="M106 460L67 600L162 517Z" fill="#c2b11e" stroke="#fff252"></path><path d="M594 600L629 526L507 499Z" fill="#dac629" stroke="#fff252"></path><path d="M64 100L0 167L112 185Z" fill="#f2da34" stroke="#fff252"></path><path d="M662 411L739 323L572 262Z" fill="#8a8000" stroke="#fff252"></path><path d="M789 368L739 323L662 411Z" fill="#ffe539" stroke="#fff252"></path><path d="M718 81L617 0L562 134Z" fill="#a0930c" stroke="#fff252"></path><path d="M718 81L562 134L676 203Z" fill="#ab9d13" stroke="#fff252"></path><path d="M505 600L594 600L507 499Z" fill="#b6a719" stroke="#fff252"></path><path d="M629 526L698 497L662 411Z" fill="#958a06" stroke="#fff252"></path><path d="M699 600L698 497L629 526Z" fill="#8a8000" stroke="#fff252"></path><path d="M220 0L63 0L194 120Z" fill="#cebb24" stroke="#fff252"></path><path d="M64 100L0 80L0 167Z" fill="#e6d02e" stroke="#fff252"></path><path d="M63 0L0 80L64 100Z" fill="#958a06" stroke="#fff252"></path><path d="M769 132L718 81L676 203Z" fill="#958a06" stroke="#fff252"></path><path d="M0 378L0 514L105 433Z" fill="#dac629" stroke="#fff252"></path><path d="M0 514L67 600L106 460Z" fill="#c2b11e" stroke="#fff252"></path><path d="M718 81L688 0L617 0Z" fill="#e6d02e" stroke="#fff252"></path><path d="M766 485L789 368L662 411Z" fill="#8a8000" stroke="#fff252"></path><path d="M790 189L769 132L676 203Z" fill="#cebb24" stroke="#fff252"></path><path d="M790 189L676 203L739 323Z" fill="#958a06" stroke="#fff252"></path><path d="M718 81L776 0L688 0Z" fill="#ab9d13" stroke="#fff252"></path><path d="M834 302L790 189L739 323Z" fill="#cebb24" stroke="#fff252"></path><path d="M63 0L0 0L0 80Z" fill="#f2da34" stroke="#fff252"></path><path d="M769 600L766 485L698 497Z" fill="#f2da34" stroke="#fff252"></path><path d="M698 497L766 485L662 411Z" fill="#cebb24" stroke="#fff252"></path><path d="M594 600L699 600L629 526Z" fill="#b6a719" stroke="#fff252"></path><path d="M0 514L0 600L67 600Z" fill="#8a8000" stroke="#fff252"></path><path d="M900 294L834 302L900 365Z" fill="#cebb24" stroke="#fff252"></path><path d="M789 368L834 302L739 323Z" fill="#ab9d13" stroke="#fff252"></path><path d="M900 108L776 0L769 132Z" fill="#c2b11e" stroke="#fff252"></path><path d="M900 108L769 132L790 189Z" fill="#ab9d13" stroke="#fff252"></path><path d="M769 132L776 0L718 81Z" fill="#8a8000" stroke="#fff252"></path><path d="M699 600L769 600L698 497Z" fill="#958a06" stroke="#fff252"></path><path d="M900 365L834 302L789 368Z" fill="#ab9d13" stroke="#fff252"></path><path d="M900 365L789 368L900 512Z" fill="#a0930c" stroke="#fff252"></path><path d="M834 302L900 214L790 189Z" fill="#ab9d13" stroke="#fff252"></path><path d="M900 294L900 214L834 302Z" fill="#ffe539" stroke="#fff252"></path><path d="M900 512L789 368L766 485Z" fill="#dac629" stroke="#fff252"></path><path d="M900 214L900 108L790 189Z" fill="#ab9d13" stroke="#fff252"></path><path d="M769 600L900 512L766 485Z" fill="#ffe539" stroke="#fff252"></path><path d="M900 108L900 0L776 0Z" fill="#8a8000" stroke="#fff252"></path><path d="M769 600L900 600L900 512Z" fill="#f2da34" stroke="#fff252"></path></g></svg>